<svg width="20" height="20" viewBox="0 0 20 20" fill="none" xmlns="http://www.w3.org/2000/svg">
<path d="M11.5268 13.8051C11.6989 13.8841 11.8928 13.9022 12.0765 13.8563C12.2602 13.8104 12.4228 13.7033 12.5375 13.5526L12.8333 13.1652C12.9886 12.9582 13.1898 12.7902 13.4212 12.6745C13.6526 12.5588 13.9078 12.4986 14.1665 12.4986H16.6662C17.1082 12.4986 17.5321 12.6741 17.8446 12.9867C18.1571 13.2992 18.3327 13.7231 18.3327 14.165V16.6647C18.3327 17.1067 18.1571 17.5306 17.8446 17.8431C17.5321 18.1556 17.1082 18.3312 16.6662 18.3312C12.6884 18.3312 8.87357 16.7511 6.06085 13.9383C3.24814 11.1256 1.66797 7.31076 1.66797 3.33298C1.66797 2.891 1.84354 2.46713 2.15607 2.1546C2.46859 1.84208 2.89246 1.6665 3.33444 1.6665H5.83415C6.27612 1.6665 6.7 1.84208 7.01252 2.1546C7.32504 2.46713 7.50062 2.891 7.50062 3.33298V5.83268C7.50062 6.09139 7.44038 6.34655 7.32469 6.57795C7.20899 6.80935 7.041 7.01063 6.83403 7.16586L6.44408 7.45833C6.29111 7.57513 6.18329 7.74128 6.13894 7.92856C6.09459 8.11584 6.11643 8.31271 6.20077 8.48571C7.33954 10.7987 9.21244 12.6692 11.5268 13.8051Z" stroke="#030213" stroke-width="1.66647" stroke-linecap="round" stroke-linejoin="round"/>
</svg>
