<svg width="20" height="20" viewBox="0 0 20 20" fill="none" xmlns="http://www.w3.org/2000/svg">
<path d="M16.6638 8.33239C16.6638 12.4927 12.0485 16.8256 10.4987 18.1637C10.3543 18.2723 10.1786 18.331 9.99792 18.331C9.81727 18.331 9.64152 18.2723 9.49714 18.1637C7.94732 16.8256 3.33203 12.4927 3.33203 8.33239C3.33203 6.56449 4.03433 4.86899 5.28442 3.6189C6.53452 2.3688 8.23001 1.6665 9.99792 1.6665C11.7658 1.6665 13.4613 2.3688 14.7114 3.6189C15.9615 4.86899 16.6638 6.56449 16.6638 8.33239Z" stroke="#030213" stroke-width="1.66647" stroke-linecap="round" stroke-linejoin="round"/>
<path d="M9.99971 10.8319C11.3803 10.8319 12.4994 9.71278 12.4994 8.33223C12.4994 6.95168 11.3803 5.83252 9.99971 5.83252C8.61916 5.83252 7.5 6.95168 7.5 8.33223C7.5 9.71278 8.61916 10.8319 9.99971 10.8319Z" stroke="#030213" stroke-width="1.66647" stroke-linecap="round" stroke-linejoin="round"/>
</svg>
