<svg width="16" height="16" viewBox="0 0 16 16" fill="none" xmlns="http://www.w3.org/2000/svg">
<g clip-path="url(#clip0_86_2637)">
<path d="M11.3282 1.33301H4.66409C2.82385 1.33301 1.33203 2.82482 1.33203 4.66507V11.3292C1.33203 13.1694 2.82385 14.6613 4.66409 14.6613H11.3282C13.1685 14.6613 14.6603 13.1694 14.6603 11.3292V4.66507C14.6603 2.82482 13.1685 1.33301 11.3282 1.33301Z" stroke="#0A0A0A" stroke-width="1.33283" stroke-linecap="round" stroke-linejoin="round"/>
<path d="M10.6618 7.57689C10.7441 8.13151 10.6494 8.69794 10.3911 9.19562C10.1329 9.69329 9.7243 10.0969 9.22348 10.349C8.72266 10.601 8.1551 10.6888 7.60154 10.5997C7.04797 10.5106 6.53659 10.2493 6.14013 9.8528C5.74367 9.45633 5.48231 8.94495 5.39323 8.39139C5.30416 7.83783 5.3919 7.27027 5.64398 6.76945C5.89605 6.26863 6.29963 5.86004 6.79731 5.60181C7.29498 5.34357 7.86142 5.24884 8.41604 5.33108C8.98177 5.41497 9.50552 5.67859 9.90993 6.083C10.3143 6.48741 10.578 7.01116 10.6618 7.57689Z" stroke="#0A0A0A" stroke-width="1.33283" stroke-linecap="round" stroke-linejoin="round"/>
<path d="M11.6641 4.33154H11.6707" stroke="#0A0A0A" stroke-width="1.33283" stroke-linecap="round" stroke-linejoin="round"/>
</g>
<defs>
<clipPath id="clip0_86_2637">
<rect width="15.9939" height="15.9939" fill="white"/>
</clipPath>
</defs>
</svg>
