<svg width="16" height="16" viewBox="0 0 16 16" fill="none" xmlns="http://www.w3.org/2000/svg">
<g clip-path="url(#clip0_86_2645)">
<path d="M10.6625 5.33154C11.723 5.33154 12.74 5.75281 13.4899 6.50267C14.2397 7.25253 14.661 8.26956 14.661 9.33002V13.9949H11.9954V9.33002C11.9954 8.97653 11.8549 8.63752 11.605 8.38757C11.355 8.13762 11.016 7.99719 10.6625 7.99719C10.3091 7.99719 9.97004 8.13762 9.72009 8.38757C9.47014 8.63752 9.32971 8.97653 9.32971 9.33002V13.9949H6.66406V9.33002C6.66406 8.26956 7.08533 7.25253 7.83519 6.50267C8.58505 5.75281 9.60208 5.33154 10.6625 5.33154Z" stroke="#0A0A0A" stroke-width="1.33283" stroke-linecap="round" stroke-linejoin="round"/>
<path d="M3.99768 5.99756H1.33203V13.9945H3.99768V5.99756Z" stroke="#0A0A0A" stroke-width="1.33283" stroke-linecap="round" stroke-linejoin="round"/>
<path d="M2.66486 3.99866C3.40096 3.99866 3.99768 3.40193 3.99768 2.66583C3.99768 1.92973 3.40096 1.33301 2.66486 1.33301C1.92876 1.33301 1.33203 1.92973 1.33203 2.66583C1.33203 3.40193 1.92876 3.99866 2.66486 3.99866Z" stroke="#0A0A0A" stroke-width="1.33283" stroke-linecap="round" stroke-linejoin="round"/>
</g>
<defs>
<clipPath id="clip0_86_2645">
<rect width="15.9939" height="15.9939" fill="white"/>
</clipPath>
</defs>
</svg>
