<svg width="57" height="56" viewBox="0 0 57 56" fill="none" xmlns="http://www.w3.org/2000/svg">
<path d="M8.16849 51.4699C2.51659 45.8934 0.858583 38.9604 1.00926 35.3432L28.2119 28.6362L55.0396 35.3432C55.115 38.2068 54.5141 44.3862 47.5811 51.9974" stroke="#BB9F64" stroke-width="2"/>
<path d="M52.4032 29.5413V24.4245C52.4032 22.6721 51.3906 21.0775 49.8046 20.3322L46.1484 18.6143" stroke="#BB9F64" stroke-width="2" stroke-linecap="round"/>
<path d="M39.593 25.0197V18.2102C39.593 16.5189 38.6491 14.969 37.1464 14.1929L32.2832 11.6812" stroke="#BB9F64" stroke-width="2"/>
<path d="M16.3819 25.019V18.2875C16.3819 16.5556 17.3713 14.9758 18.9295 14.2197L23.541 11.9819" stroke="#BB9F64" stroke-width="2"/>
<path d="M3.7213 29.7661V24.2164C3.7213 22.454 4.74525 20.8523 6.34479 20.1125L9.75 18.5376" stroke="#BB9F64" stroke-width="2" stroke-linecap="round"/>
<path d="M17.6996 14.8666C17.8173 13.8423 17.669 12.805 17.269 11.8547C16.8691 10.9043 16.231 10.0731 15.4164 9.44116C14.6017 8.8092 13.638 8.39784 12.618 8.24676C11.5981 8.09567 10.5565 8.20995 9.59361 8.57858C8.63072 8.94721 7.77907 9.55775 7.12081 10.3513C6.46254 11.1449 6.01988 12.0947 5.83551 13.1091C5.65114 14.1235 5.7313 15.1683 6.06823 16.1428C6.40517 17.1172 6.98753 17.9883 7.75913 18.6722L8.14723 18.2343C7.45087 17.6171 6.92531 16.8309 6.62123 15.9515C6.31715 15.0721 6.24481 14.1292 6.4112 13.2137C6.57759 12.2982 6.97709 11.441 7.57116 10.7249C8.16523 10.0087 8.93382 9.45771 9.80281 9.12503C10.6718 8.79234 11.6119 8.68921 12.5323 8.82556C13.4527 8.96191 14.3225 9.33316 15.0577 9.90349C15.793 10.4738 16.3688 11.224 16.7297 12.0816C17.0907 12.9393 17.2245 13.8754 17.1183 14.7999L17.6996 14.8666Z" stroke="#BB9F64" stroke-width="1.5" stroke-linejoin="round"/>
<line x1="28.5332" y1="33.5552" x2="28.5332" y2="44.5169" stroke="#BB9F64" stroke-width="2" stroke-linecap="round"/>
<path d="M55.3425 54.7108H55.2864C53.7436 54.7108 52.2283 54.3025 50.8944 53.5274L49.8027 52.893C48.2194 51.973 46.3666 51.6291 44.5587 51.9197C43.6168 52.0711 42.71 52.3911 41.8818 52.8643L40.5717 53.613C39.4842 54.2344 38.2579 54.5725 37.0056 54.5961C35.6414 54.6218 34.2962 54.2735 33.116 53.589L31.8813 52.8729C31.3966 52.5917 30.8844 52.3607 30.3528 52.1835L30.1673 52.1217C29.1778 51.7919 28.1286 51.6807 27.0921 51.7959C25.8985 51.9285 24.7558 52.3522 23.7642 53.0298L23.41 53.2718C21.7083 54.4346 19.6151 54.8755 17.5889 54.4977C16.74 54.3394 15.9233 54.0411 15.1722 53.6148L13.5183 52.6761L12.8585 52.3957C11.3329 51.7473 9.63411 51.6284 8.03306 52.058C7.62182 52.1683 7.22414 52.324 6.84736 52.5224L5.03024 53.4787C3.77485 54.1395 2.37751 54.4847 0.958863 54.4847H0.556641" stroke="#BB9F64" stroke-width="1.05502"/>
<line x1="34.6152" y1="21.5488" x2="34.6152" y2="24.4196" stroke="#BB9F64" stroke-width="1.5" stroke-linecap="round"/>
<line x1="21.9551" y1="21.5488" x2="21.9551" y2="24.4196" stroke="#BB9F64" stroke-width="1.5" stroke-linecap="round"/>
<line x1="8.8418" y1="24.8647" x2="8.8418" y2="27.7356" stroke="#BB9F64" stroke-width="1.5" stroke-linecap="round"/>
<line x1="48.0293" y1="24.8647" x2="48.0293" y2="27.7356" stroke="#BB9F64" stroke-width="1.5" stroke-linecap="round"/>
<circle cx="28.0566" cy="8.5" r="5.5" stroke="#BB9F64" stroke-width="2"/>
<path d="M47.1408 18.8119C47.9677 18.196 48.6219 17.3774 49.0403 16.4351C49.4587 15.4927 49.6273 14.4585 49.5297 13.4321C49.4321 12.4057 49.0717 11.4217 48.4832 10.5752C47.8946 9.72859 47.0979 9.04796 46.1698 8.59892C45.2416 8.14989 44.2135 7.94759 43.1844 8.01156C42.1554 8.07552 41.1601 8.40359 40.2948 8.9641C39.4294 9.52462 38.7231 10.2987 38.2439 11.2116C37.7648 12.1246 37.529 13.1456 37.5592 14.1762L38.1441 14.159C38.1168 13.2289 38.3296 12.3074 38.762 11.4835C39.1945 10.6596 39.8319 9.96106 40.6129 9.45521C41.3939 8.94935 42.292 8.65328 43.2207 8.59555C44.1494 8.53782 45.0773 8.72039 45.9149 9.12564C46.7525 9.53089 47.4716 10.1451 48.0027 10.9092C48.5338 11.6732 48.8591 12.5612 48.9472 13.4875C49.0353 14.4138 48.8832 15.3472 48.5055 16.1976C48.1279 17.048 47.5375 17.7868 46.7913 18.3426L47.1408 18.8119Z" stroke="#BB9F64" stroke-linejoin="round"/>
</svg>
