<svg width="59" height="59" viewBox="0 0 59 59" fill="none" xmlns="http://www.w3.org/2000/svg">
<path d="M8.54578 54.179C2.59642 48.309 0.85114 41.0111 1.00975 37.2035L29.6441 30.1436L57.8838 37.2035C57.9631 40.2178 57.3307 46.7225 50.0328 54.7343" stroke="#BB9F64" stroke-width="2"/>
<path d="M41.6242 26.3359V19.1681C41.6242 17.3878 40.6306 15.7563 39.0488 14.9393L33.9297 12.2954" stroke="#BB9F64" stroke-width="2"/>
<path d="M17.1907 26.336V19.2503C17.1907 17.4271 18.2321 15.7642 19.8724 14.9683L24.7266 12.6128" stroke="#BB9F64" stroke-width="2"/>
<line x1="29.9316" y1="35.2686" x2="29.9316" y2="46.9125" stroke="#BB9F64" stroke-width="2" stroke-linecap="round"/>
<path d="M58.2025 57.5899H58.1435C56.5195 57.5899 54.9245 57.1601 53.5204 56.3442L52.3712 55.6765C50.7046 54.708 48.7543 54.346 46.8511 54.6519C45.8597 54.8112 44.9052 55.1481 44.0334 55.6463L42.6543 56.4343C41.5096 57.0884 40.2188 57.4443 38.9006 57.4692C37.4646 57.4963 36.0486 57.1296 34.8062 56.409L33.5065 55.6552C32.9963 55.3593 32.4572 55.1162 31.8976 54.9296L31.7023 54.8645C30.6608 54.5174 29.5564 54.4004 28.4653 54.5216C27.2089 54.6612 26.006 55.1072 24.9622 55.8204L24.5894 56.0752C22.7981 57.2992 20.5947 57.7633 18.4619 57.3656C17.5683 57.199 16.7086 56.8849 15.918 56.4362L14.1771 55.4481L13.4825 55.1529C11.8766 54.4704 10.0884 54.3453 8.40312 54.7974C7.97024 54.9136 7.55162 55.0775 7.15501 55.2863L5.24225 56.293C3.92079 56.9885 2.44991 57.3519 0.956596 57.3519H0.533203" stroke="#BB9F64" stroke-width="2"/>
<line x1="36.5957" y1="22.8936" x2="36.5957" y2="25.4944" stroke="#BB9F64" stroke-width="2" stroke-linecap="round"/>
<line x1="23.2676" y1="22.8936" x2="23.2676" y2="25.4944" stroke="#BB9F64" stroke-width="2" stroke-linecap="round"/>
<circle cx="29.5332" cy="8" r="6" stroke="#BB9F64" stroke-width="2"/>
</svg>
