<svg width="32" height="32" viewBox="0 0 32 32" fill="none" xmlns="http://www.w3.org/2000/svg">
<path d="M12.762 16.6133L8.69531 20.6799" stroke="#8C8C8C" stroke-width="1.5" stroke-miterlimit="10" stroke-linecap="round" stroke-linejoin="round"/>
<path d="M8.73438 16.6538L12.801 20.7205" stroke="#8C8C8C" stroke-width="1.5" stroke-miterlimit="10" stroke-linecap="round" stroke-linejoin="round"/>
<path d="M18.0391 18.6665H18.0524" stroke="#8C8C8C" stroke-width="2" stroke-miterlimit="10" stroke-linecap="round" stroke-linejoin="round"/>
<path d="M23.293 18.6665H23.3063" stroke="#8C8C8C" stroke-width="2" stroke-miterlimit="10" stroke-linecap="round" stroke-linejoin="round"/>
<path d="M20.6641 21.3069V21.2803" stroke="#8C8C8C" stroke-width="2" stroke-miterlimit="10" stroke-linecap="round" stroke-linejoin="round"/>
<path d="M20.6641 16.0525V16.0259" stroke="#8C8C8C" stroke-width="2" stroke-miterlimit="10" stroke-linecap="round" stroke-linejoin="round"/>
<path d="M11.9974 29.3333H19.9974C26.6641 29.3333 29.3307 26.6667 29.3307 20V17.3333C29.3307 10.6667 26.6641 8 19.9974 8H11.9974C5.33073 8 2.66406 10.6667 2.66406 17.3333V20C2.66406 26.6667 5.33073 29.3333 11.9974 29.3333Z" stroke="#8C8C8C" stroke-width="2" stroke-linecap="round" stroke-linejoin="round"/>
<path d="M17.3473 2.6665L17.334 4.01317C17.3206 4.7465 16.734 5.33317 16.0006 5.33317H15.9606C15.2273 5.33317 14.6406 5.93317 14.6406 6.6665C14.6406 7.39984 15.2406 7.99984 15.974 7.99984H17.3073" stroke="#8C8C8C" stroke-width="2" stroke-linecap="round" stroke-linejoin="round"/>
</svg>
