<svg width="24" height="24" viewBox="0 0 24 24" fill="none" xmlns="http://www.w3.org/2000/svg">
<path d="M17.3846 16.8618L14.0399 15.0109C15.283 14.0338 15.6206 12.1137 15.6206 11.0371V8.79606C15.6206 7.31215 13.647 5.65946 11.6647 5.65946C9.68291 5.65946 7.65702 7.31241 7.65702 8.79606V11.0371C7.65702 12.016 8.07164 13.9964 9.32751 15.0024L5.89647 16.8618C5.89647 16.8618 5 17.2609 5 17.7585V19.1033C5 19.5982 5.40213 20 5.89647 20H17.3846C17.8794 20 18.2816 19.5982 18.2816 19.1033V17.7585C18.2816 17.2309 17.3846 16.8618 17.3846 16.8618L17.3846 16.8618ZM17.2191 18.9386H6.06252V17.9896C6.13875 17.9342 6.24526 17.87 6.3292 17.8315C6.35415 17.8201 6.37912 17.8081 6.40276 17.7946L9.83405 15.9355C10.147 15.7659 10.3544 15.4514 10.386 15.0974C10.4176 14.7434 10.2697 14.3966 9.99236 14.1742C9.10147 13.4607 8.71977 11.8802 8.71977 11.0371V8.79611C8.71977 8.03372 10.1584 6.72096 11.665 6.72096C13.1995 6.72096 14.5584 8.01569 14.5584 8.79611V11.0371C14.5584 11.8685 14.2999 13.4559 13.3833 14.1764C13.2451 14.2851 13.136 14.4263 13.0659 14.5874C12.9957 14.7485 12.9666 14.9245 12.9811 15.0996C12.9959 15.2746 13.0539 15.4432 13.1498 15.5903C13.2458 15.7375 13.3767 15.8586 13.531 15.9429L16.8757 17.7938C16.9052 17.81 16.9426 17.8275 16.9737 17.841C17.052 17.8742 17.1485 17.9297 17.2191 17.9785V18.9386V18.9386ZM21.1028 14.2191L17.7084 12.3682C18.9515 11.3911 19.339 9.47091 19.339 8.39432V6.15332C19.339 4.6694 17.3158 3 15.3335 3C14.0452 3 12.728 3.69976 11.9614 4.59591C12.3986 4.62296 12.8807 4.62351 13.2972 4.75619C13.8569 4.32073 14.565 4.06174 15.3335 4.06174C16.868 4.06174 18.2765 5.37288 18.2765 6.1536V8.3946C18.2765 9.22597 17.9684 10.8134 17.0518 11.5338C16.9136 11.6425 16.8045 11.7838 16.7344 11.9449C16.6642 12.106 16.6351 12.282 16.6496 12.4571C16.6644 12.6321 16.7224 12.8007 16.8183 12.9478C16.9143 13.095 17.0452 13.2161 17.1995 13.3004L20.5938 15.1513C20.6233 15.1675 20.6608 15.185 20.6919 15.1985C20.7702 15.2317 20.8666 15.2872 20.9373 15.336V16.2799H18.7926C19.1164 16.524 19.2145 16.8732 19.3401 17.3413H21.103C21.5979 17.3413 22 16.9396 22 16.4447V15.1162C21.9998 14.5882 21.1027 14.2191 21.1027 14.2191L21.1028 14.2191Z" fill="#989898"/>
</svg>
