<svg width="28" height="28" viewBox="0 0 28 28" fill="none" xmlns="http://www.w3.org/2000/svg">
<path d="M3.42773 6.85693C4.05617 6.85693 4.57106 7.37113 4.57129 7.99951V21.7144C4.57137 22.3429 5.08534 22.8569 5.71387 22.8569H19.4277C20.0562 22.8569 20.5711 23.3711 20.5713 23.9995C20.5713 24.6281 20.0563 25.1431 19.4277 25.1431H4.57129C3.31415 25.1431 2.28516 24.1141 2.28516 22.8569V7.99951C2.28538 7.37122 2.79943 6.85709 3.42773 6.85693ZM22.8564 2.28564C24.1136 2.28564 25.1426 3.31463 25.1426 4.57178V18.2856C25.1426 19.5428 24.1136 20.5718 22.8564 20.5718H9.14258C7.88544 20.5718 6.85645 19.5428 6.85645 18.2856V4.57178C6.85645 3.31463 7.88544 2.28564 9.14258 2.28564H22.8564ZM18.7305 13.1313C18.5019 12.8459 18.0684 12.8459 17.8398 13.1313L14.8906 16.811L13.0283 14.3198C12.7997 14.0227 12.3419 14.0227 12.1133 14.3198L9.82812 17.3716C9.54252 17.7487 9.81662 18.2856 10.2852 18.2856H21.668C22.148 18.2856 22.4104 17.737 22.1133 17.3599L18.7305 13.1313Z" fill="white"/>
</svg>
