<svg width="20" height="20" viewBox="0 0 20 20" fill="none" xmlns="http://www.w3.org/2000/svg">
<path d="M9.68692 0.752734C9.80275 0.47425 10.1973 0.47425 10.3131 0.752734L12.5655 6.1682C12.6143 6.2856 12.7247 6.36581 12.8515 6.37597L18.6979 6.84468C18.9986 6.86878 19.1205 7.24398 18.8914 7.44019L14.437 11.2558C14.3405 11.3386 14.2983 11.4684 14.3278 11.592L15.6887 17.2972C15.7587 17.5906 15.4395 17.8224 15.1821 17.6652L10.1767 14.608C10.0682 14.5417 9.93176 14.5417 9.82325 14.608L4.81788 17.6652C4.56048 17.8224 4.24132 17.5906 4.31131 17.2972L5.67219 11.592C5.70169 11.4684 5.65952 11.3386 5.56296 11.2558L1.10858 7.44019C0.87952 7.24398 1.00143 6.86878 1.30207 6.84468L7.14852 6.37597C7.27526 6.36581 7.38567 6.2856 7.4345 6.1682L9.68692 0.752734Z" fill="#CEAF6E"/>
</svg>
