<svg width="63" height="63" viewBox="0 0 63 63" fill="none" xmlns="http://www.w3.org/2000/svg">
<g clip-path="url(#clip0_1_4203)">
<mask id="mask0_1_4203" style="mask-type:luminance" maskUnits="userSpaceOnUse" x="0" y="0" width="63" height="63">
<path d="M62.3356 0H0V62.3356H62.3356V0Z" fill="white"/>
</mask>
<g mask="url(#mask0_1_4203)">
<path fill-rule="evenodd" clip-rule="evenodd" d="M18.239 7.82275C16.1724 7.82275 14.4973 9.49467 14.4973 11.5574C14.4973 13.6194 16.1724 15.2921 18.239 15.2921C20.3056 15.2921 21.9807 13.6194 21.9807 11.5574C21.9807 9.49467 20.3056 7.82275 18.239 7.82275ZM19.0041 35.2285C13.8395 37.4359 12.1002 31.9292 12.556 26.5868C12.7204 23.9581 12.9178 22.72 13.3234 20.3813C14.1488 17.5854 15.8584 16.4207 19.2774 17.4376C24.4491 18.3639 29.1595 19.0033 35.646 18.7344C37.9389 18.5523 38.0619 21.2419 35.7737 21.4897C30.0577 22.2822 25.3425 22.4941 21.2532 22.3408C20.2866 24.756 20.3687 26.6387 20.4664 28.8777C20.4785 29.1546 20.4908 29.437 20.5014 29.7266C31.0066 26.0397 32.5133 34.3357 33.4935 39.733C33.6494 40.5912 33.7919 41.3761 33.9552 42.028L29.5597 43.6647C29.3141 42.4598 29.169 41.2566 29.0322 40.1223C28.4098 34.9615 27.9593 31.2255 19.0041 35.2285ZM36.0438 24.1785C34.4831 24.1362 34.4588 22.1439 36.0438 22.0884H52.1829V24.1785H36.0438ZM47.1256 37.1741C35.4064 43.7117 24.7694 46.5772 14.0642 49.6756L15.347 51.8313C26.1947 48.8009 37.0454 45.7228 48.0974 39.4268L47.1256 37.1741Z" fill="#BB9F64"/>
</g>
</g>
<defs>
<clipPath id="clip0_1_4203">
<rect width="62.3356" height="62.3356" fill="white"/>
</clipPath>
</defs>
</svg>
