<svg width="19" height="19" viewBox="0 0 19 19" fill="none" xmlns="http://www.w3.org/2000/svg">
<path d="M15.4564 10.0464C15.4564 13.9103 12.7516 15.8423 9.53684 16.9628C9.36849 17.0199 9.18563 17.0172 9.01907 16.9551C5.79655 15.8423 3.0918 13.9103 3.0918 10.0464V4.6369C3.0918 4.43195 3.17322 4.23539 3.31814 4.09046C3.46307 3.94554 3.65963 3.86412 3.86458 3.86412C5.41016 3.86412 7.34212 2.93677 8.68677 1.76214C8.85049 1.62226 9.05875 1.54541 9.27409 1.54541C9.48942 1.54541 9.69769 1.62226 9.86141 1.76214C11.2138 2.9445 13.138 3.86412 14.6836 3.86412C14.8885 3.86412 15.0851 3.94554 15.23 4.09046C15.375 4.23539 15.4564 4.43195 15.4564 4.6369V10.0464Z" stroke="#717182" stroke-width="1.54557" stroke-linecap="round" stroke-linejoin="round"/>
</svg>
